# This file uses meters as units for non-parametric coordinates.

mtllib zhijia.mtl
g default
v -124.990372 385.555542 414.457886
v -124.990372 385.555542 409.407593
v -115.160637 383.222687 412.899109
v -115.160637 383.769989 413.718323
v -115.160637 384.589294 414.265564
v -115.160637 385.555542 414.457886
v -115.160637 385.555542 409.407593
v -115.160637 384.589294 409.599823
v -115.160637 383.769989 410.147186
v -115.160637 383.222687 410.966400
v -115.160637 383.030396 411.932739
v -124.990364 382.112885 413.358734
v -124.990364 382.920746 414.567688
v -115.160637 382.920715 414.567657
v -115.160637 382.112885 413.358734
v -124.990364 384.129517 415.375427
v -115.160637 384.129517 415.375427
v -124.990364 385.325806 415.613312
v -115.160637 385.325806 415.613312
v -124.990364 385.325806 408.252136
v -124.990364 384.129517 408.490082
v -115.160637 384.129517 408.490082
v -115.160637 385.325806 408.252136
v -124.990364 382.920715 409.297852
v -115.160637 382.920624 409.297882
v -124.990364 382.112885 410.506714
v -115.160637 382.112885 410.506714
v -124.990364 381.829315 411.932709
v -115.160637 381.829315 411.932739
v -124.990372 383.769989 413.718323
v -124.990372 383.222687 412.899109
v -124.990372 384.589294 414.265564
v -124.990372 384.589294 409.599823
v -124.990372 383.769989 410.147186
v -124.990372 383.222687 410.966400
v -124.990372 383.030396 411.932739
v -125.271027 372.929871 400.820526
v -123.279312 372.929871 400.820526
v -125.271027 398.181244 400.820526
v -123.279312 398.181244 400.820526
v -125.271027 398.181244 426.071899
v -123.279312 398.181244 426.071899
v -125.271027 372.929871 426.071899
v -123.279312 372.929871 426.071899
v -125.271027 398.181244 423.546844
v -123.279312 398.181244 423.546844
v -123.279312 372.929871 423.546844
v -125.271027 372.929871 423.546844
v -120.491615 398.181244 423.546844
v -120.491615 372.929871 423.546844
v -120.491615 372.929871 426.071899
v -120.491615 398.181244 426.071899
v -128.067017 372.929871 426.071899
v -128.067017 372.929871 423.546844
v -128.067017 398.181244 423.546844
v -128.067017 398.181244 426.071899
vt 0.060479 0.559343
vt 0.045175 0.574648
vt 0.030618 0.552863
vt 0.050616 0.544581
vt 0.075242 0.569204
vt 0.066957 0.589203
vt 0.025508 0.527167
vt 0.047151 0.527167
vt 0.092654 0.572670
vt 0.088514 0.593490
vt 0.030618 0.501471
vt 0.050616 0.509754
vt 0.045173 0.479688
vt 0.060479 0.494992
vt 0.066957 0.465132
vt 0.075242 0.485128
vt 0.088514 0.460844
vt 0.092654 0.481665
vt 0.523233 0.456852
vt 0.477732 0.456852
vt 0.477732 0.001828
vt 0.523233 0.001828
vt 0.575854 0.001828
vt 0.575854 0.456852
vt 0.530353 0.456852
vt 0.530353 0.001828
vt 0.992498 0.001828
vt 0.992498 0.456852
vt 0.582975 0.456852
vt 0.582975 0.001828
vt 0.998008 0.915868
vt 0.588485 0.915868
vt 0.588485 0.460844
vt 0.998008 0.460844
vt 0.381730 0.637973
vt 0.381730 0.460844
vt 0.407426 0.460844
vt 0.407425 0.637973
vt 0.359946 0.637973
vt 0.359947 0.460844
vt 0.433122 0.460844
vt 0.433122 0.637973
vt 0.345390 0.637973
vt 0.345390 0.460844
vt 0.454906 0.460844
vt 0.454907 0.637973
vt 0.469462 0.460844
vt 0.469462 0.637973
vt 0.283871 0.637973
vt 0.263050 0.637973
vt 0.263050 0.460844
vt 0.283871 0.460844
vt 0.236094 0.460844
vt 0.256915 0.460844
vt 0.256915 0.637973
vt 0.236094 0.637973
vt 0.205334 0.460844
vt 0.205334 0.637973
vt 0.187920 0.637973
vt 0.187920 0.460844
vt 0.220096 0.460844
vt 0.220096 0.637973
vt 0.170506 0.637973
vt 0.170506 0.460844
vt 0.229959 0.460844
vt 0.229959 0.637973
vt 0.155744 0.637973
vt 0.155744 0.460844
vt 0.145883 0.637973
vt 0.145883 0.460844
vt 0.131337 0.047329
vt 0.095447 0.047329
vt 0.095447 0.001828
vt 0.131337 0.001828
vt 0.095447 0.456852
vt 0.131337 0.456852
vt 0.045064 0.047329
vt 0.045064 0.001828
vt 0.181571 0.001828
vt 0.181571 0.047329
vt 0.419782 0.456852
vt 0.383892 0.456852
vt 0.383892 0.411351
vt 0.419782 0.411351
vt 0.333509 0.456852
vt 0.333509 0.411351
vt 0.383892 0.001828
vt 0.419782 0.001828
vt 0.470016 0.411351
vt 0.470016 0.456852
vt 0.317698 0.637973
vt 0.317698 0.460844
vt 0.339255 0.460844
vt 0.339255 0.637973
vt 0.290006 0.637973
vt 0.290006 0.460844
vt 0.311563 0.460844
vt 0.311563 0.637973
vt 0.139748 0.460844
vt 0.139748 0.637973
vt 0.122336 0.637973
vt 0.122336 0.460844
vt 0.116201 0.460844
vt 0.116201 0.637973
vt 0.098789 0.637973
vt 0.098789 0.460844
vt 0.037882 0.456852
vt 0.001992 0.456852
vt 0.001992 0.001828
vt 0.037882 0.001828
vt 0.275560 0.456852
vt 0.239670 0.456852
vt 0.239670 0.001828
vt 0.275560 0.001828
vt 0.189286 0.456852
vt 0.189286 0.001828
vt 0.325793 0.001828
vt 0.325793 0.456852
vt 0.532116 0.460844
vt 0.582350 0.460844
vt 0.582350 0.915868
vt 0.532116 0.915868
vt 0.525981 0.915868
vt 0.475597 0.915868
vt 0.475597 0.460844
vt 0.525981 0.460844
vn -0.000001 -0.923885 0.382670
vn -0.000001 -0.923885 0.382670
vn -0.000001 -0.707117 0.707097
vn -0.000001 -0.707116 0.707097
vn 0.000000 -0.398709 0.917077
vn 0.000000 -0.398709 0.917077
vn 0.000000 -0.195036 0.980796
vn 0.000000 -0.195036 0.980796
vn 0.000000 -0.195084 -0.980787
vn 0.000000 -0.195084 -0.980787
vn -0.000002 -0.398732 -0.917068
vn -0.000002 -0.398732 -0.917068
vn -0.000003 -0.707107 -0.707107
vn -0.000003 -0.707105 -0.707108
vn -0.000001 -0.923887 -0.382666
vn -0.000001 -0.923887 -0.382666
vn -0.000000 -1.000000 0.000000
vn -0.000000 -1.000000 -0.000000
vn 1.000000 0.000005 0.000000
vn 1.000000 0.000005 0.000000
vn 1.000000 0.000005 0.000000
vn 1.000000 0.000005 0.000000
vn 1.000000 -0.000005 0.000000
vn 1.000000 -0.000005 0.000000
vn 1.000000 -0.000005 0.000000
vn 1.000000 -0.000005 0.000000
vn 0.000000 0.980799 0.195020
vn 0.000000 0.980799 0.195020
vn 0.000000 0.980799 0.195020
vn 0.000000 0.980799 0.195020
vn 1.000000 0.000001 0.000000
vn 1.000000 0.000001 0.000000
vn 1.000000 0.000001 0.000000
vn 1.000000 0.000001 0.000000
vn 1.000000 -0.000003 0.000000
vn 1.000000 -0.000003 0.000000
vn 1.000000 -0.000003 0.000000
vn 1.000000 -0.000003 0.000000
vn 0.000000 0.980800 -0.195015
vn 0.000000 0.980800 -0.195015
vn 0.000000 0.980800 -0.195015
vn 0.000000 0.980800 -0.195014
vn 1.000000 0.000003 0.000000
vn 1.000000 0.000003 0.000000
vn 1.000000 0.000003 0.000000
vn 1.000000 0.000003 0.000000
vn 1.000000 0.000005 0.000000
vn 1.000000 0.000005 0.000000
vn 1.000000 0.000005 0.000000
vn 1.000000 0.000005 0.000000
vn 1.000000 0.000000 0.000000
vn 1.000000 0.000000 0.000000
vn 1.000000 0.000000 0.000000
vn 1.000000 0.000000 0.000000
vn 1.000000 0.000005 0.000000
vn 1.000000 0.000005 0.000000
vn 1.000000 0.000005 0.000000
vn 1.000000 0.000005 0.000000
vn 0.000000 0.923883 -0.382676
vn 0.000000 0.923883 -0.382676
vn 0.000000 0.707062 -0.707152
vn 0.000000 0.707062 -0.707152
vn 0.000000 0.382667 -0.923886
vn 0.000000 0.382667 -0.923886
vn 0.000000 0.195214 -0.980761
vn 0.000000 0.195214 -0.980761
vn 0.000000 0.195124 0.980779
vn 0.000000 0.195124 0.980779
vn 0.000000 0.382680 0.923881
vn 0.000000 0.382680 0.923881
vn 0.000000 0.707093 0.707120
vn 0.000000 0.707093 0.707120
vn 0.000000 0.923881 0.382681
vn 0.000000 0.923881 0.382681
vn 0.000000 1.000000 0.000000
vn 0.000000 1.000000 0.000000
vn -0.000000 0.000000 -1.000000
vn -0.000000 0.000000 -1.000000
vn -0.000000 0.000000 -1.000000
vn -0.000000 0.000000 -1.000000
vn 0.000000 1.000000 0.000000
vn 0.000000 1.000000 0.000000
vn 0.000000 1.000000 0.000000
vn 0.000000 1.000000 0.000000
vn 0.000000 -0.000000 1.000000
vn 0.000000 -0.000000 1.000000
vn 0.000000 -0.000000 1.000000
vn 0.000000 -0.000000 1.000000
vn 0.000000 -1.000000 0.000000
vn 0.000000 -1.000000 0.000000
vn 0.000000 -1.000000 0.000000
vn 0.000000 -1.000000 0.000000
vn 1.000000 -0.000000 -0.000000
vn 1.000000 -0.000000 -0.000000
vn 1.000000 -0.000000 -0.000000
vn 1.000000 -0.000000 -0.000000
vn -1.000000 0.000000 0.000000
vn -1.000000 0.000000 0.000000
vn -1.000000 0.000000 0.000000
vn -1.000000 0.000000 0.000000
vn 0.000000 1.000000 0.000000
vn 0.000000 1.000000 0.000000
vn 0.000000 1.000000 0.000000
vn 0.000000 1.000000 0.000000
vn 1.000000 -0.000000 -0.000000
vn 1.000000 -0.000000 -0.000000
vn 1.000000 -0.000000 -0.000000
vn 1.000000 -0.000000 -0.000000
vn 0.000000 -1.000000 0.000000
vn 0.000000 -1.000000 0.000000
vn 0.000000 -1.000000 0.000000
vn 0.000000 -1.000000 0.000000
vn -1.000000 0.000000 0.000000
vn -1.000000 0.000000 0.000000
vn -1.000000 0.000000 0.000000
vn -1.000000 0.000000 0.000000
vn -0.000000 0.000000 -1.000000
vn -0.000000 0.000000 -1.000000
vn -0.000000 0.000000 -1.000000
vn -0.000000 0.000000 -1.000000
vn 0.000000 -1.000000 0.000000
vn 0.000000 -1.000000 0.000000
vn 0.000000 -1.000000 0.000000
vn 0.000000 -1.000000 0.000000
vn 0.000000 -0.000000 1.000000
vn 0.000000 -0.000000 1.000000
vn 0.000000 -0.000000 1.000000
vn 0.000000 -0.000000 1.000000
vn 0.000000 1.000000 0.000000
vn 0.000000 1.000000 0.000000
vn 0.000000 1.000000 0.000000
vn 0.000000 1.000000 0.000000
vn 0.000000 -1.000000 0.000000
vn 0.000000 -1.000000 0.000000
vn 0.000000 -1.000000 0.000000
vn 0.000000 -1.000000 0.000000
vn -0.000000 0.000000 -1.000000
vn -0.000000 0.000000 -1.000000
vn -0.000000 0.000000 -1.000000
vn -0.000000 0.000000 -1.000000
vn 0.000000 1.000000 0.000000
vn 0.000000 1.000000 0.000000
vn 0.000000 1.000000 0.000000
vn 0.000000 1.000000 0.000000
vn 0.000000 -0.000000 1.000000
vn 0.000000 -0.000000 1.000000
vn 0.000000 -0.000000 1.000000
vn 0.000000 -0.000000 1.000000
s 1
g polySurface24
usemtl jlmzj_initialShadingGroup
f 12/42/1 15/41/2 14/45/3 13/46/4
f 13/46/4 14/45/3 17/47/5 16/48/6
f 16/91/6 17/92/5 19/93/7 18/94/8
f 20/95/9 23/96/10 22/97/11 21/98/12
f 21/43/12 22/44/11 25/40/13 24/39/14
f 24/39/14 25/40/13 27/36/15 26/35/16
f 26/35/16 27/36/15 29/37/17 28/38/18
f 28/38/18 29/37/17 15/41/2 12/42/1
s off
f 4/1/19 14/2/20 15/3/21 3/4/22
f 5/5/23 17/6/24 14/2/25 4/1/26
f 1/49/27 18/50/28 19/51/29 6/52/30
f 6/9/31 19/10/32 17/6/33 5/5/34
f 8/16/35 22/15/36 23/17/37 7/18/38
f 7/53/39 23/54/40 20/55/41 2/56/42
f 9/14/43 25/13/44 22/15/45 8/16/46
f 10/12/47 27/11/48 25/13/49 9/14/50
f 11/8/51 29/7/52 27/11/53 10/12/54
f 3/4/55 15/3/56 29/7/57 11/8/58
s 3
f 3/64/59 31/63/60 30/67/61 4/68/62
f 4/68/62 30/67/61 32/69/63 5/70/64
f 5/99/64 32/100/63 1/101/65 6/102/66
f 7/103/67 2/104/68 33/105/69 8/106/70
f 8/65/70 33/66/69 34/62/71 9/61/72
f 9/61/72 34/62/71 35/58/73 10/57/74
f 10/57/74 35/58/73 36/59/75 11/60/76
f 11/60/76 36/59/75 31/63/60 3/64/59
s off
f 38/107/77 37/108/78 39/109/79 40/110/80
f 46/71/81 45/72/82 41/73/83 42/74/84
f 42/111/85 41/112/86 43/113/87 44/114/88
f 44/81/89 43/82/90 48/83/91 47/84/92
f 49/19/93 52/20/94 51/21/95 50/22/96
f 53/23/97 56/24/98 55/25/99 54/26/100
f 39/75/101 45/72/102 46/71/103 40/76/104
f 38/27/105 40/28/106 46/29/107 47/30/108
f 47/84/109 48/83/110 37/87/111 38/88/112
f 45/31/113 39/32/114 37/33/115 48/34/116
f 46/119/117 49/120/118 50/121/119 47/122/120
f 47/84/121 50/89/122 51/90/123 44/81/124
f 44/114/125 51/117/126 52/118/127 42/111/128
f 42/74/129 52/79/130 49/80/131 46/71/132
f 43/82/133 53/85/134 54/86/135 48/83/136
f 48/123/137 54/124/138 55/125/139 45/126/140
f 45/72/141 55/77/142 56/78/143 41/73/144
f 41/112/145 56/115/146 53/116/147 43/113/148
g default
v 124.990372 385.555542 414.457886
v 124.990372 385.555542 409.407593
v 115.160637 383.222687 412.899109
v 115.160637 383.769989 413.718323
v 115.160637 384.589294 414.265564
v 115.160637 385.555542 414.457886
v 115.160637 385.555542 409.407593
v 115.160637 384.589294 409.599823
v 115.160637 383.769989 410.147186
v 115.160637 383.222687 410.966400
v 115.160637 383.030396 411.932739
v 124.990364 382.112885 413.358734
v 124.990364 382.920746 414.567688
v 115.160637 382.920715 414.567657
v 115.160637 382.112885 413.358734
v 124.990364 384.129517 415.375427
v 115.160637 384.129517 415.375427
v 124.990364 385.325806 415.613312
v 115.160637 385.325806 415.613312
v 124.990364 385.325806 408.252136
v 124.990364 384.129517 408.490082
v 115.160637 384.129517 408.490082
v 115.160637 385.325806 408.252136
v 124.990364 382.920715 409.297852
v 115.160637 382.920624 409.297882
v 124.990364 382.112885 410.506714
v 115.160637 382.112885 410.506714
v 124.990364 381.829315 411.932709
v 115.160637 381.829315 411.932739
v 124.990372 383.769989 413.718323
v 124.990372 383.222687 412.899109
v 124.990372 384.589294 414.265564
v 124.990372 384.589294 409.599823
v 124.990372 383.769989 410.147186
v 124.990372 383.222687 410.966400
v 124.990372 383.030396 411.932739
v 125.271027 372.929871 400.820526
v 123.279312 372.929871 400.820526
v 125.271027 398.181244 400.820526
v 123.279312 398.181244 400.820526
v 125.271027 398.181244 426.071899
v 123.279312 398.181244 426.071899
v 125.271027 372.929871 426.071899
v 123.279312 372.929871 426.071899
v 125.271027 398.181244 423.546844
v 123.279312 398.181244 423.546844
v 123.279312 372.929871 423.546844
v 125.271027 372.929871 423.546844
v 120.491615 398.181244 423.546844
v 120.491615 372.929871 423.546844
v 120.491615 372.929871 426.071899
v 120.491615 398.181244 426.071899
v 128.067017 372.929871 426.071899
v 128.067017 372.929871 423.546844
v 128.067017 398.181244 423.546844
v 128.067017 398.181244 426.071899
vt 0.060479 0.494991
vt 0.050616 0.509753
vt 0.030618 0.501471
vt 0.045175 0.479687
vt 0.047151 0.527167
vt 0.025508 0.527167
vt 0.075242 0.485130
vt 0.066957 0.465131
vt 0.050616 0.544580
vt 0.030618 0.552863
vt 0.092654 0.481664
vt 0.088514 0.460844
vt 0.060479 0.559343
vt 0.045173 0.574646
vt 0.075242 0.569206
vt 0.066957 0.589203
vt 0.092654 0.572669
vt 0.088514 0.593490
vt 0.477732 0.456852
vt 0.477732 0.001828
vt 0.523233 0.001828
vt 0.523233 0.456852
vt 0.530353 0.001828
vt 0.575854 0.001828
vt 0.575854 0.456852
vt 0.530353 0.456852
vt 0.582975 0.001828
vt 0.992498 0.001828
vt 0.992498 0.456852
vt 0.582975 0.456852
vt 0.588485 0.915868
vt 0.588485 0.460844
vt 0.998008 0.460844
vt 0.998008 0.915868
vt 0.381730 0.460844
vt 0.407425 0.460844
vt 0.407426 0.637973
vt 0.381730 0.637973
vt 0.433122 0.460844
vt 0.433122 0.637973
vt 0.359946 0.460844
vt 0.359947 0.637973
vt 0.454907 0.460844
vt 0.454906 0.637973
vt 0.345390 0.460844
vt 0.345390 0.637973
vt 0.469462 0.460844
vt 0.469462 0.637973
vt 0.283871 0.460844
vt 0.283871 0.637973
vt 0.263050 0.637973
vt 0.263050 0.460844
vt 0.236094 0.637973
vt 0.236094 0.460844
vt 0.256915 0.460844
vt 0.256915 0.637973
vt 0.205334 0.637973
vt 0.187920 0.637973
vt 0.187920 0.460844
vt 0.205334 0.460844
vt 0.170506 0.637973
vt 0.170506 0.460844
vt 0.220096 0.637973
vt 0.220096 0.460844
vt 0.155744 0.637973
vt 0.155744 0.460844
vt 0.229959 0.637973
vt 0.229959 0.460844
vt 0.145883 0.637973
vt 0.145883 0.460844
vt 0.095298 0.047329
vt 0.095298 0.001828
vt 0.131188 0.001828
vt 0.131188 0.047329
vt 0.045064 0.047329
vt 0.045064 0.001828
vt 0.181571 0.001828
vt 0.181571 0.047329
vt 0.131188 0.456852
vt 0.095298 0.456852
vt 0.383743 0.456852
vt 0.383743 0.411351
vt 0.419633 0.411351
vt 0.419633 0.456852
vt 0.333509 0.456852
vt 0.333509 0.411351
vt 0.383743 0.001828
vt 0.419633 0.001828
vt 0.470016 0.411351
vt 0.470016 0.456852
vt 0.317698 0.460844
vt 0.339255 0.460844
vt 0.339255 0.637973
vt 0.317698 0.637973
vt 0.290006 0.460844
vt 0.311563 0.460844
vt 0.311563 0.637973
vt 0.290006 0.637973
vt 0.139748 0.637973
vt 0.122336 0.637973
vt 0.122336 0.460844
vt 0.139748 0.460844
vt 0.116201 0.637973
vt 0.098789 0.637973
vt 0.098789 0.460844
vt 0.116201 0.460844
vt 0.001992 0.456852
vt 0.001992 0.001828
vt 0.037882 0.001828
vt 0.037882 0.456852
vt 0.239520 0.456852
vt 0.239520 0.001828
vt 0.275410 0.001828
vt 0.275410 0.456852
vt 0.189286 0.456852
vt 0.189286 0.001828
vt 0.325793 0.001828
vt 0.325793 0.456852
vt 0.582350 0.460844
vt 0.582350 0.915868
vt 0.532116 0.915868
vt 0.532116 0.460844
vt 0.475597 0.915868
vt 0.475597 0.460844
vt 0.525981 0.460844
vt 0.525981 0.915868
vn 0.000001 -0.923885 0.382670
vn 0.000002 -0.707116 0.707097
vn 0.000002 -0.707117 0.707097
vn 0.000001 -0.923885 0.382670
vn 0.000001 -0.398710 0.917077
vn 0.000001 -0.398710 0.917077
vn 0.000000 -0.195036 0.980796
vn 0.000000 -0.195036 0.980796
vn 0.000000 -0.195084 -0.980787
vn 0.000002 -0.398732 -0.917067
vn 0.000002 -0.398732 -0.917067
vn 0.000000 -0.195084 -0.980787
vn 0.000003 -0.707105 -0.707108
vn 0.000003 -0.707107 -0.707107
vn 0.000001 -0.923887 -0.382666
vn 0.000001 -0.923887 -0.382666
vn 0.000000 -1.000000 -0.000000
vn 0.000000 -1.000000 0.000000
vn -1.000000 0.000005 0.000000
vn -1.000000 0.000005 0.000000
vn -1.000000 0.000005 0.000000
vn -1.000000 0.000005 0.000000
vn -1.000000 -0.000005 0.000000
vn -1.000000 -0.000005 0.000000
vn -1.000000 -0.000005 0.000000
vn -1.000000 -0.000005 0.000000
vn 0.000000 0.980800 0.195019
vn 0.000000 0.980800 0.195019
vn 0.000000 0.980800 0.195019
vn 0.000000 0.980800 0.195019
vn -1.000000 0.000000 0.000000
vn -1.000000 0.000000 0.000000
vn -1.000000 0.000000 0.000000
vn -1.000000 0.000000 0.000000
vn -1.000000 0.000000 0.000000
vn -1.000000 0.000000 0.000000
vn -1.000000 0.000000 0.000000
vn -1.000000 0.000000 0.000000
vn 0.000000 0.980800 -0.195014
vn 0.000000 0.980800 -0.195014
vn 0.000000 0.980800 -0.195015
vn 0.000000 0.980800 -0.195014
vn -1.000000 0.000000 0.000000
vn -1.000000 0.000000 0.000000
vn -1.000000 0.000000 0.000000
vn -1.000000 0.000000 0.000000
vn -1.000000 0.000008 0.000000
vn -1.000000 0.000008 0.000000
vn -1.000000 0.000008 0.000000
vn -1.000000 0.000008 0.000000
vn -1.000000 0.000000 0.000000
vn -1.000000 0.000000 0.000000
vn -1.000000 0.000000 0.000000
vn -1.000000 0.000000 0.000000
vn -1.000000 0.000003 0.000000
vn -1.000000 0.000003 0.000000
vn -1.000000 0.000003 0.000000
vn -1.000000 0.000003 0.000000
vn 0.000000 0.923883 -0.382676
vn 0.000000 0.707062 -0.707152
vn 0.000000 0.707062 -0.707152
vn 0.000000 0.923883 -0.382676
vn 0.000000 0.382667 -0.923886
vn 0.000000 0.382667 -0.923886
vn 0.000000 0.195214 -0.980761
vn 0.000000 0.195214 -0.980761
vn 0.000000 0.195124 0.980779
vn 0.000000 0.382680 0.923881
vn 0.000000 0.382680 0.923881
vn 0.000000 0.195124 0.980779
vn 0.000000 0.707093 0.707120
vn 0.000000 0.707093 0.707120
vn 0.000000 0.923881 0.382681
vn 0.000000 0.923881 0.382681
vn 0.000000 1.000000 0.000000
vn 0.000000 1.000000 0.000000
vn 0.000000 0.000000 -1.000000
vn 0.000000 0.000000 -1.000000
vn 0.000000 0.000000 -1.000000
vn 0.000000 0.000000 -1.000000
vn 0.000000 1.000000 0.000000
vn 0.000000 1.000000 0.000000
vn 0.000000 1.000000 0.000000
vn 0.000000 1.000000 0.000000
vn -0.000000 -0.000000 1.000000
vn -0.000000 -0.000000 1.000000
vn -0.000000 -0.000000 1.000000
vn -0.000000 -0.000000 1.000000
vn 0.000000 -1.000000 0.000000
vn 0.000000 -1.000000 0.000000
vn 0.000000 -1.000000 0.000000
vn 0.000000 -1.000000 0.000000
vn -1.000000 -0.000000 -0.000000
vn -1.000000 -0.000000 -0.000000
vn -1.000000 -0.000000 -0.000000
vn -1.000000 -0.000000 -0.000000
vn 1.000000 0.000000 0.000000
vn 1.000000 0.000000 0.000000
vn 1.000000 0.000000 0.000000
vn 1.000000 0.000000 0.000000
vn 0.000000 1.000000 0.000000
vn 0.000000 1.000000 0.000000
vn 0.000000 1.000000 0.000000
vn 0.000000 1.000000 0.000000
vn -1.000000 -0.000000 -0.000000
vn -1.000000 -0.000000 -0.000000
vn -1.000000 -0.000000 -0.000000
vn -1.000000 -0.000000 -0.000000
vn 0.000000 -1.000000 0.000000
vn 0.000000 -1.000000 0.000000
vn 0.000000 -1.000000 0.000000
vn 0.000000 -1.000000 0.000000
vn 1.000000 0.000000 0.000000
vn 1.000000 0.000000 0.000000
vn 1.000000 0.000000 0.000000
vn 1.000000 0.000000 0.000000
vn 0.000000 0.000000 -1.000000
vn 0.000000 0.000000 -1.000000
vn 0.000000 0.000000 -1.000000
vn 0.000000 0.000000 -1.000000
vn 0.000000 -1.000000 0.000000
vn 0.000000 -1.000000 0.000000
vn 0.000000 -1.000000 0.000000
vn 0.000000 -1.000000 0.000000
vn -0.000000 -0.000000 1.000000
vn -0.000000 -0.000000 1.000000
vn -0.000000 -0.000000 1.000000
vn -0.000000 -0.000000 1.000000
vn 0.000000 1.000000 0.000000
vn 0.000000 1.000000 0.000000
vn 0.000000 1.000000 0.000000
vn 0.000000 1.000000 0.000000
vn 0.000000 -1.000000 0.000000
vn 0.000000 -1.000000 0.000000
vn 0.000000 -1.000000 0.000000
vn 0.000000 -1.000000 0.000000
vn 0.000000 0.000000 -1.000000
vn 0.000000 0.000000 -1.000000
vn 0.000000 0.000000 -1.000000
vn 0.000000 0.000000 -1.000000
vn 0.000000 1.000000 0.000000
vn 0.000000 1.000000 0.000000
vn 0.000000 1.000000 0.000000
vn 0.000000 1.000000 0.000000
vn -0.000000 -0.000000 1.000000
vn -0.000000 -0.000000 1.000000
vn -0.000000 -0.000000 1.000000
vn -0.000000 -0.000000 1.000000
s 1
g polySurface23
usemtl jlmzj_initialShadingGroup
f 68/165/149 69/169/150 70/170/151 71/166/152
f 69/169/150 72/173/153 73/174/154 70/170/151
f 72/217/153 74/218/155 75/219/156 73/220/154
f 76/221/157 77/222/158 78/223/159 79/224/160
f 77/171/158 80/167/161 81/168/162 78/172/159
f 80/167/161 82/161/163 83/164/164 81/168/162
f 82/161/163 84/162/165 85/163/166 83/164/164
f 84/162/165 68/165/149 71/166/152 85/163/166
s off
f 60/127/167 59/128/168 71/129/169 70/130/170
f 61/133/171 60/127/172 70/130/173 73/134/174
f 57/175/175 62/176/176 75/177/177 74/178/178
f 62/137/179 61/133/180 73/134/181 75/138/182
f 64/141/183 63/143/184 79/144/185 78/142/186
f 63/179/187 58/180/188 76/181/189 79/182/190
f 65/139/191 64/141/192 78/142/193 81/140/194
f 66/135/195 65/139/196 81/140/197 83/136/198
f 67/131/199 66/135/200 83/136/201 85/132/202
f 59/128/203 67/131/204 85/132/205 71/129/206
s 3
f 59/187/207 60/191/208 86/192/209 87/188/210
f 60/191/208 61/195/211 88/196/212 86/192/209
f 61/225/211 62/226/213 57/227/214 88/228/212
f 63/229/215 64/230/216 89/231/217 58/232/218
f 64/193/216 65/189/219 90/190/220 89/194/217
f 65/189/219 66/183/221 91/186/222 90/190/220
f 66/183/221 67/184/223 92/185/224 91/186/222
f 67/184/223 59/187/207 87/188/210 92/185/224
s off
f 94/233/225 96/234/226 95/235/227 93/236/228
f 102/197/229 98/198/230 97/199/231 101/200/232
f 98/237/233 100/238/234 99/239/235 97/240/236
f 100/207/237 103/208/238 104/209/239 99/210/240
f 105/145/241 106/146/242 107/147/243 108/148/244
f 109/149/245 110/150/246 111/151/247 112/152/248
f 95/205/249 96/206/250 102/197/251 101/200/252
f 94/153/253 103/154/254 102/155/255 96/156/256
f 103/208/257 94/213/258 93/214/259 104/209/260
f 101/157/261 104/158/262 93/159/263 95/160/264
f 102/245/265 103/246/266 106/247/267 105/248/268
f 103/208/269 100/207/270 107/211/271 106/212/272
f 100/238/273 98/237/274 108/241/275 107/242/276
f 98/198/277 102/197/278 105/201/279 108/202/280
f 99/210/281 104/209/282 110/215/283 109/216/284
f 104/249/285 101/250/286 111/251/287 110/252/288
f 101/200/289 97/199/290 112/203/291 111/204/292
f 97/240/293 99/239/294 109/243/295 112/244/296
